<?xml version="1.0" standalone="no"?>
<!DOCTYPE svg PUBLIC "-//W3C//DTD SVG 20010904//EN"
 "http://www.w3.org/TR/2001/REC-SVG-20010904/DTD/svg10.dtd">
<svg version="1.0" xmlns="http://www.w3.org/2000/svg"
 width="1280.000000pt" height="1205.000000pt" viewBox="0 0 1280.000000 1205.000000"
 preserveAspectRatio="xMidYMid meet">
<metadata>
Created by potrace 1.15, written by Peter Selinger 2001-2017
</metadata>
<g transform="translate(0.000000,1205.000000) scale(0.100000,-0.100000)"
fill="#EB6424" stroke="none">
<path d="M3654 12040 c-56 -18 -103 -83 -92 -130 2 -9 -16 -17 -53 -25 -113
-23 -169 -80 -169 -169 0 -60 29 -129 61 -146 41 -23 113 -7 194 43 66 40 72
42 54 18 -17 -23 -18 -32 -9 -57 6 -16 23 -41 38 -56 38 -41 78 -37 196 19
l98 47 19 -23 c10 -13 19 -34 19 -47 0 -48 -20 -69 -117 -119 -129 -67 -346
-195 -578 -341 -430 -272 -608 -365 -784 -410 -80 -21 -78 -15 -60 -125 l12
-69 36 6 c211 38 466 158 850 398 366 230 602 365 761 436 305 137 538 189
784 177 257 -14 465 -88 706 -252 61 -41 113 -75 116 -75 3 0 32 23 64 52 l59
51 -79 63 c-224 176 -432 277 -681 331 -128 27 -427 25 -569 -6 -86 -18 -332
-95 -403 -126 -15 -6 -16 -4 -7 20 24 62 3 191 -46 293 -39 80 -122 164 -194
196 -66 30 -173 42 -226 26z"/>
<path d="M695 11951 c-259 -42 -474 -201 -586 -436 -54 -112 -72 -191 -73
-315 -1 -299 169 -553 502 -750 61 -36 293 -143 298 -137 1 1 -5 48 -14 103
l-15 102 -70 33 c-163 76 -318 203 -398 325 -121 186 -125 411 -12 603 44 73
148 174 221 214 64 35 189 67 259 67 81 0 181 -26 265 -69 l75 -38 71 59 c40
33 72 63 72 67 0 23 -228 134 -322 156 -80 19 -208 26 -273 16z"/>
<path d="M1931 11904 c-294 -51 -596 -221 -797 -450 -65 -74 -178 -224 -169
-224 3 0 63 14 133 31 106 26 130 36 147 58 137 182 354 318 617 386 135 35
356 45 498 21 330 -54 638 -225 897 -499 l73 -77 85 47 c46 27 85 51 85 55 0
16 -250 259 -325 315 -215 161 -423 259 -675 320 -89 21 -134 26 -295 29 -136
2 -214 -1 -274 -12z"/>
<path d="M6945 11604 c-294 -52 -515 -152 -1065 -481 -462 -276 -576 -335
-799 -414 -93 -32 -93 -32 -12 26 62 45 124 120 141 171 15 45 7 124 -17 165
-14 24 -116 99 -135 99 -3 0 -3 -15 -1 -32 2 -19 -5 -6 -16 30 -34 115 -88
148 -228 139 -90 -5 -126 -21 -145 -62 -17 -37 6 -78 81 -147 36 -33 56 -55
44 -49 -12 6 -33 11 -48 11 -34 0 -55 -48 -55 -129 0 -50 4 -65 26 -91 15 -17
46 -40 70 -52 27 -12 44 -27 44 -37 0 -26 -48 -67 -114 -97 -54 -25 -66 -26
-146 -21 -263 19 -527 131 -776 328 l-61 48 -67 -45 -68 -46 43 -36 c248 -214
513 -353 779 -409 125 -26 352 -23 487 6 268 56 502 163 913 417 660 406 862
507 1157 575 128 30 368 37 499 15 146 -25 366 -101 377 -130 4 -9 -5 -39 -18
-68 -44 -94 -26 -228 36 -272 47 -33 169 -5 169 39 0 31 18 14 29 -27 15 -61
46 -107 82 -122 l32 -13 -69 -21 c-662 -199 -1139 -233 -1516 -108 -147 49
-274 115 -392 205 l-59 45 -24 -30 c-62 -75 -75 -95 -67 -103 27 -23 136 -101
179 -128 288 -176 560 -243 939 -230 372 13 634 76 1451 348 845 282 1084 341
1455 356 205 8 249 -5 290 -87 34 -68 34 -75 -6 -89 -87 -31 -157 -128 -152
-209 3 -46 4 -47 46 -61 40 -12 46 -12 92 11 28 14 50 24 50 22 0 -1 -16 -25
-35 -54 -47 -69 -48 -120 -5 -160 68 -63 212 -79 266 -29 39 35 54 80 54 156
0 52 3 64 12 55 7 -7 36 -12 65 -12 58 0 73 14 73 70 0 45 -22 81 -82 135 -70
63 -138 95 -206 95 l-52 0 -26 57 c-13 32 -32 65 -41 75 -15 17 -13 18 38 18
87 0 342 -28 507 -55 211 -36 458 -100 707 -185 572 -196 652 -217 800 -207
178 11 299 101 321 236 14 90 -51 179 -162 221 -77 29 -274 42 -274 18 0 -12
19 -18 75 -27 135 -20 228 -67 265 -134 75 -132 -120 -256 -340 -218 -89 16
-154 38 -453 152 -375 144 -569 205 -827 258 -431 89 -942 114 -1295 62 -314
-47 -586 -120 -1280 -346 -186 -60 -236 -72 -185 -45 32 17 60 70 60 113 0 53
-22 99 -74 155 -51 55 -54 62 -27 62 11 0 31 14 44 32 21 26 23 36 15 57 -26
71 -102 111 -222 118 -97 6 -154 -7 -199 -47 l-33 -29 -106 55 c-130 66 -282
118 -408 139 -116 18 -317 18 -425 -1z"/>
<path d="M1493 11484 l-63 -56 56 -71 c136 -174 175 -307 213 -730 4 -54 11
-100 13 -103 3 -3 47 3 98 12 l92 17 -7 86 c-25 336 -83 556 -190 722 -49 75
-132 179 -144 179 -3 0 -34 -26 -68 -56z"/>
<path d="M1410 11219 c-325 -22 -677 -173 -868 -371 l-44 -45 77 -63 c85 -69
70 -70 160 9 130 114 318 215 482 258 73 19 133 27 236 30 75 3 137 7 137 9 0
10 -62 170 -68 174 -4 3 -54 3 -112 -1z"/>
<path d="M1833 11204 c4 -11 13 -48 22 -84 l16 -66 76 -34 c137 -61 233 -183
272 -343 26 -107 23 -389 -6 -504 -5 -23 -3 -23 80 -23 73 0 86 3 91 18 16 54
28 243 24 380 -6 178 -27 266 -93 377 -81 137 -264 256 -449 290 -34 7 -38 6
-33 -11z"/>
<path d="M1015 10865 l-120 -54 -13 -68 c-17 -90 -10 -315 13 -403 83 -313
309 -495 641 -517 l90 -6 15 86 c17 97 17 97 -50 97 -54 0 -180 34 -242 66
-115 58 -207 176 -245 314 -29 102 -24 316 9 440 14 52 25 95 24 96 -1 1 -56
-22 -122 -51z"/>
<path d="M241 10488 c-50 -106 -85 -213 -102 -308 -16 -92 -16 -274 1 -355 52
-254 202 -525 462 -838 41 -50 48 -65 48 -102 0 -32 -7 -51 -25 -73 -44 -53
-90 -64 -295 -71 -178 -6 -187 -7 -232 -33 -78 -47 -106 -96 -93 -164 6 -36 7
-36 45 -31 l38 5 -15 -36 c-25 -60 -34 -142 -22 -200 19 -93 106 -182 179
-182 76 0 104 62 98 217 -3 99 4 127 15 59 15 -94 67 -110 142 -44 81 71 92
129 50 250 -14 39 -25 75 -25 79 0 4 15 11 33 14 74 17 149 75 168 132 l11 33
115 -141 c381 -467 542 -759 614 -1109 19 -93 23 -146 23 -280 0 -91 -6 -199
-13 -240 -58 -342 -184 -642 -425 -1014 l-70 -109 29 -83 c16 -46 32 -84 35
-84 3 0 39 49 81 108 340 477 513 890 551 1314 29 328 -56 679 -245 1013 -101
179 -227 356 -446 629 -343 425 -448 574 -531 749 -60 127 -86 204 -101 309
-22 152 4 320 73 470 l31 67 -34 28 c-18 15 -54 45 -81 66 l-48 39 -39 -84z"/>
<path d="M2095 10543 c-189 -66 -523 -113 -805 -113 l-117 0 17 -77 17 -78
189 1 c119 0 237 7 319 18 141 19 339 58 401 80 l39 13 -4 62 c-2 34 -6 73
-10 85 -6 22 -7 23 -46 9z"/>
<path d="M1783 10237 l-63 -10 0 -172 c0 -562 -114 -868 -447 -1204 l-133
-134 35 -51 c67 -95 61 -91 87 -73 13 9 60 49 106 91 269 243 416 489 481 808
30 143 41 262 48 521 l6 237 -29 -1 c-16 -1 -57 -6 -91 -12z"/>
<path d="M2295 10093 c-66 -8 -244 -44 -293 -58 l-52 -16 0 -79 c0 -115 -5
-111 103 -84 137 35 280 54 409 54 231 0 381 -67 445 -198 56 -115 27 -276
-65 -352 -169 -139 -419 -17 -481 234 -7 27 -12 91 -12 144 l0 95 -80 -6 c-44
-3 -83 -8 -86 -11 -4 -3 -6 -59 -6 -123 0 -94 5 -133 23 -188 69 -219 224
-364 424 -397 221 -37 446 112 502 332 22 86 15 224 -15 299 -75 186 -251 311
-493 351 -60 9 -258 11 -323 3z"/>
<path d="M844 8468 c-254 -264 -400 -570 -445 -932 -16 -135 -7 -416 20 -571
62 -357 161 -654 442 -1323 232 -552 296 -727 345 -939 46 -205 44 -454 -6
-693 -51 -243 -122 -425 -317 -815 -198 -395 -247 -514 -298 -727 -93 -391
-40 -835 158 -1329 30 -74 106 -246 169 -384 64 -137 126 -281 138 -319 44
-133 26 -234 -54 -304 -114 -100 -266 5 -266 183 0 25 -4 35 -13 32 -8 -3 -12
-31 -12 -98 1 -76 5 -102 22 -134 56 -106 161 -141 269 -91 119 55 178 196
154 366 -16 112 -49 206 -181 504 -240 541 -308 819 -296 1217 5 196 32 368
51 334 23 -39 102 -118 138 -136 23 -12 38 -27 38 -38 0 -10 -14 -58 -31 -107
-53 -150 -41 -208 51 -247 l48 -20 -10 -36 c-51 -184 151 -261 287 -109 38 41
85 130 85 160 0 9 12 40 27 69 51 103 38 211 -35 282 -49 48 -78 57 -176 57
-195 0 -342 82 -381 214 -15 48 -14 50 21 140 44 110 54 131 205 416 149 283
209 417 269 600 81 248 120 489 120 749 0 342 -72 586 -400 1366 -279 662
-371 955 -414 1319 l-6 50 31 -47 c206 -312 777 -171 783 192 1 89 -28 134
-103 156 -23 7 -23 6 -16 -41 8 -61 -6 -49 -29 22 -47 146 -141 215 -260 193
-94 -17 -136 -59 -136 -135 0 -31 8 -45 48 -84 l47 -48 -32 1 c-55 2 -93 -53
-93 -135 0 -39 5 -47 61 -100 67 -65 72 -88 16 -88 -58 0 -136 29 -178 67
-113 103 -154 342 -95 557 67 248 179 449 364 656 l61 68 -63 56 c-35 31 -66
56 -68 56 -2 0 -26 -24 -54 -52z m142 -6508 l-14 -45 -1 46 c-1 47 6 66 21 51
4 -4 2 -28 -6 -52z"/>
<path d="M729 5678 c-45 -73 -230 -459 -265 -553 -62 -169 -77 -262 -78 -490
-1 -264 20 -350 126 -512 l40 -63 -17 -64 c-50 -182 32 -311 205 -324 37 -2
84 -2 104 2 44 8 91 47 116 95 14 28 28 40 58 49 44 13 126 81 146 121 60 119
-21 277 -131 256 -22 -4 -50 -22 -77 -49 l-43 -43 -19 34 c-46 86 -180 87
-286 3 l-37 -30 -29 78 c-55 142 -57 154 -56 367 1 110 6 229 13 265 33 179
148 444 278 638 l63 93 -40 79 c-22 44 -42 80 -45 80 -3 0 -14 -15 -26 -32z
m141 -1632 c0 -2 -8 -10 -17 -17 -16 -13 -17 -12 -4 4 13 16 21 21 21 13z"/>
</g>
</svg>
